<?xml version="1.0" encoding="utf-8"?>
<!-- Generator: Adobe Illustrator 16.0.4, SVG Export Plug-In . SVG Version: 6.00 Build 0)  -->
<!DOCTYPE svg PUBLIC "-//W3C//DTD SVG 1.1//EN" "http://www.w3.org/Graphics/SVG/1.1/DTD/svg11.dtd">
<svg version="1.1" id="Layer_1" xmlns="http://www.w3.org/2000/svg" xmlns:xlink="http://www.w3.org/1999/xlink" x="0px" y="0px"
	 width="284px" height="284px" viewBox="0 0 284 284" enable-background="new 0 0 284 284" xml:space="preserve">
<g>
	<g enable-background="new    ">
		<path fill="#666666" d="M134.086,13.121h-0.065l-3.477,1.876l-0.519-2.061l4.364-2.338h2.308v19.998h-2.611V13.121z"/>
		<path fill="#666666" d="M141.619,30.596v-1.662l2.125-2.062c5.105-4.858,7.412-7.443,7.443-10.461
			c0-2.026-0.986-3.903-3.967-3.903c-1.812,0-3.322,0.92-4.248,1.689l-0.863-1.907c1.387-1.166,3.357-2.03,5.664-2.03
			c4.307,0,6.121,2.954,6.121,5.815c0,3.69-2.679,6.675-6.889,10.736l-1.598,1.474v0.065h8.98v2.246H141.619z"/>
	</g>
	<g enable-background="new    ">
		<path fill="#666666" d="M212.018,34.527h-0.055l-3.482,1.877l-0.521-2.061l4.369-2.339h2.306v19.997h-2.617V34.527L212.018,34.527
			z"/>
	</g>
	<g enable-background="new    ">
		<path fill="#666666" d="M245.501,98.4v-1.66l2.125-2.061c5.101-4.864,7.413-7.445,7.444-10.462c0-2.031-0.986-3.905-3.973-3.905
			c-1.81,0-3.32,0.922-4.246,1.69l-0.855-1.905c1.383-1.17,3.35-2.032,5.658-2.032c4.311,0,6.121,2.952,6.121,5.812
			c0,3.692-2.678,6.676-6.893,10.738l-1.595,1.475v0.063h8.979V98.4H245.501z"/>
	</g>
	<g enable-background="new    ">
		<path fill="#666666" d="M260.045,148.861c0.771,0.496,2.553,1.261,4.438,1.261c3.467,0,4.551-2.217,4.519-3.873
			c-0.03-2.804-2.551-3.999-5.168-3.999h-1.508v-2.029h1.508c1.972,0,4.459-1.018,4.459-3.386c0-1.602-1.017-3.018-3.504-3.018
			c-1.604,0-3.142,0.708-3.997,1.324l-0.715-1.971c1.045-0.769,3.076-1.537,5.23-1.537c3.938,0,5.727,2.339,5.727,4.769
			c0,2.06-1.234,3.818-3.697,4.709v0.061c2.463,0.491,4.462,2.339,4.462,5.139c0,3.199-2.489,5.996-7.286,5.996
			c-2.252,0-4.215-0.709-5.199-1.354L260.045,148.861z"/>
	</g>
	<g enable-background="new    ">
		<path fill="#666666" d="M250.165,208.475v-5.443h-9.293v-1.786l8.925-12.771h2.92v12.434h2.801v2.123h-2.801v5.443H250.165z
			 M250.165,200.908v-6.68c0-1.045,0.03-2.088,0.091-3.139h-0.091c-0.619,1.172-1.108,2.034-1.665,2.953l-4.889,6.798v0.066
			L250.165,200.908L250.165,200.908z"/>
	</g>
	<g enable-background="new    ">
		<path fill="#666666" d="M213.029,233.818H205.4l-0.771,5.14c0.467-0.063,0.893-0.12,1.629-0.12c1.543,0,3.081,0.332,4.312,1.072
			c1.566,0.895,2.861,2.613,2.861,5.138c0,3.906-3.113,6.828-7.445,6.828c-2.187,0-4.033-0.618-4.986-1.229l0.677-2.062
			c0.835,0.495,2.462,1.109,4.276,1.109c2.557,0,4.74-1.664,4.74-4.338c-0.029-2.582-1.756-4.432-5.758-4.432
			c-1.136,0-2.029,0.124-2.767,0.215l1.293-9.598h9.567V233.818L213.029,233.818z"/>
	</g>
	<g enable-background="new    ">
		<path fill="#666666" d="M145.662,253.467c-0.549-0.023-1.258,0-2.025,0.122c-4.246,0.709-6.494,3.817-6.952,7.109h0.091
			c0.953-1.261,2.615-2.308,4.83-2.308c3.533,0,6.031,2.551,6.031,6.463c0,3.662-2.498,7.049-6.644,7.049
			c-4.282,0-7.078-3.323-7.078-8.527c0-3.938,1.416-7.049,3.383-9.018c1.661-1.625,3.878-2.646,6.401-2.946
			c0.796-0.128,1.475-0.16,1.963-0.16V253.467L145.662,253.467z M144.896,265.011c0-2.862-1.629-4.588-4.124-4.588
			c-1.629,0-3.137,1.013-3.875,2.463c-0.188,0.308-0.307,0.712-0.307,1.201c0.062,3.29,1.568,5.724,4.401,5.724
			C143.325,269.811,144.896,267.871,144.896,265.011z"/>
	</g>
	<g enable-background="new    ">
		<path fill="#666666" d="M86.028,231.542v1.779l-8.705,18.217h-2.799l8.675-17.692v-0.06h-9.783v-2.244H86.028z"/>
	</g>
	<g enable-background="new    ">
		<path fill="#666666" d="M29.149,203.398c0-2.521,1.511-4.308,3.972-5.354l-0.031-0.091c-2.214-1.047-3.166-2.772-3.166-4.491
			c0-3.172,2.673-5.324,6.182-5.324c3.875,0,5.812,2.434,5.812,4.922c0,1.692-0.83,3.504-3.29,4.679v0.091
			c2.489,0.984,4.031,2.736,4.031,5.172c0,3.471-2.985,5.812-6.8,5.812C31.676,208.812,29.149,206.324,29.149,203.398z
			 M39.923,203.275c0-2.435-1.696-3.604-4.402-4.368c-2.338,0.676-3.6,2.214-3.6,4.124c-0.091,2.029,1.443,3.816,4.001,3.816
			C38.354,206.848,39.923,205.337,39.923,203.275z M32.476,193.273c0,2.007,1.507,3.076,3.815,3.694
			c1.724-0.588,3.043-1.817,3.043-3.634c0-1.598-0.951-3.257-3.381-3.257C33.708,190.078,32.476,191.553,32.476,193.273z"/>
	</g>
	<g enable-background="new    ">
		<path fill="#666666" d="M12.283,150.066c0.586,0.056,1.262,0,2.184-0.094c1.569-0.221,3.046-0.861,4.183-1.937
			c1.325-1.197,2.278-2.956,2.647-5.323h-0.093c-1.104,1.355-2.706,2.151-4.708,2.151c-3.599,0-5.906-2.708-5.906-6.122
			c0-3.784,2.738-7.106,6.828-7.106c4.095,0,6.618,3.322,6.618,8.432c0,4.398-1.479,7.472-3.446,9.38
			c-1.54,1.51-3.66,2.435-5.813,2.682c-0.986,0.15-1.847,0.183-2.493,0.15L12.283,150.066L12.283,150.066z M13.266,138.559
			c0,2.49,1.511,4.244,3.849,4.244c1.815,0,3.229-0.892,3.937-2.09c0.153-0.248,0.246-0.558,0.246-0.985
			c0-3.417-1.263-6.028-4.092-6.028C14.897,133.7,13.266,135.727,13.266,138.559z"/>
	</g>
	<g enable-background="new    ">
		<path fill="#666666" d="M30.901,80.926H30.84l-3.476,1.878l-0.524-2.063l4.371-2.339h2.305V98.4h-2.615V80.926z"/>
		<path fill="#666666" d="M51.73,88.187c0,6.797-2.525,10.551-6.953,10.551c-3.907,0-6.551-3.662-6.61-10.274
			c0-6.705,2.888-10.398,6.949-10.398C49.33,78.065,51.73,81.818,51.73,88.187z M40.87,88.493c0,5.2,1.6,8.152,4.061,8.152
			c2.77,0,4.093-3.231,4.093-8.338c0-4.92-1.263-8.15-4.062-8.15C42.594,80.157,40.87,83.048,40.87,88.493z"/>
	</g>
	<g enable-background="new    ">
		<path fill="#666666" d="M70.984,34.527h-0.058l-3.477,1.877l-0.524-2.061l4.371-2.339H73.6v19.997h-2.615L70.984,34.527
			L70.984,34.527z"/>
		<path fill="#666666" d="M84.403,34.527h-0.064l-3.475,1.877l-0.526-2.061l4.369-2.339h2.309v19.997h-2.612L84.403,34.527
			L84.403,34.527z"/>
	</g>
</g>
</svg>
